<svg xmlns="http://www.w3.org/2000/svg" width="1200" height="630" viewBox="0 0 1200 630">
  <defs>
    <radialGradient id="tintTR" cx="92%" cy="0%" r="60%">
      <stop offset="0" stop-color="#5b4be8" stop-opacity="0.10"/>
      <stop offset="1" stop-color="#5b4be8" stop-opacity="0"/>
    </radialGradient>
    <radialGradient id="tintBL" cx="0%" cy="100%" r="55%">
      <stop offset="0" stop-color="#0f9e90" stop-opacity="0.07"/>
      <stop offset="1" stop-color="#0f9e90" stop-opacity="0"/>
    </radialGradient>
  </defs>
  <rect width="1200" height="630" fill="#faf6ec"/>
  <rect width="1200" height="630" fill="url(#tintTR)"/>
  <rect width="1200" height="630" fill="url(#tintBL)"/>

  <text x="88" y="152" font-family="Helvetica, Arial, sans-serif" font-weight="700" font-size="30" letter-spacing="3" fill="#4536c9">JUNE 16, 2026 &#183; DC PRIMARY &amp; SPECIAL ELECTION</text>
  <text x="82" y="350" font-family="Helvetica, Arial, sans-serif" font-weight="700" font-size="96" letter-spacing="-2" fill="#191a2c">DC Voter Compass</text>
  <text x="86" y="434" font-family="Georgia, serif" font-size="46" fill="#474a63">Find the candidates who actually match you.</text>
  <text x="88" y="558" font-family="Helvetica, Arial, sans-serif" font-weight="700" font-size="26" fill="#6b6e86">Independent &#183; sourced &#183; private. Built for DC voters.</text>

  <path d="M42.1 28.6L36.1 30.8L38.6 33.1L38.0 34.3L36.5 33.4L36.4 36.5L37.9 39.9L39.8 38.6L43.3 38.6L43.3 40.1L50.1 39.6L50.9 34.1L48.6 33.0L48.3 28.7L45.9 29.8ZM43.1 55.5L43.3 53.0L49.7 53.1L49.7 51.1L47.9 50.5L48.3 46.4L47.2 45.9L49.9 44.3L48.6 39.8L43.3 40.1L43.3 38.6L39.8 38.6L37.9 39.9L36.4 36.5L33.3 38.3L24.4 38.4L25.9 42.3L25.7 45.8L29.7 47.2L31.1 52.7L33.1 56.4L35.8 58.3L36.4 60.8L37.7 60.7L37.6 59.1L38.8 59.6ZM33.4 19.2L30.7 18.3L28.2 11.8L9.9 30.2L16.3 40.7L22.1 45.4L25.7 45.8L25.9 42.3L24.4 38.4L33.3 38.3L37.0 36.0L36.6 33.2L38.4 33.9L37.6 31.7L36.1 30.9L37.2 28.8L35.7 28.3L36.5 25.6L38.7 23.5L37.6 22.7L40.1 17.7L35.8 16.7L34.1 17.1ZM39.9 0.0L28.2 11.8L30.7 18.3L33.6 19.2L34.1 17.1L35.9 16.6L40.1 17.7L37.6 22.7L38.7 23.5L36.5 25.6L35.8 28.6L37.2 28.8L37.1 29.9L41.6 28.3L45.9 29.8L48.9 28.4L52.1 24.5L52.1 20.1L58.8 18.9ZM58.8 18.9L52.1 20.1L52.2 24.3L48.3 28.7L48.6 33.0L50.9 34.1L50.1 39.6L48.7 40.2L49.9 44.3L53.8 42.6L61.5 46.9L70.0 48.4L73.2 39.9L75.9 39.6L77.7 37.9ZM52.1 60.9L52.0 58.5L53.9 58.5L53.4 56.5L58.7 57.9L59.3 61.0L65.6 57.5L66.6 56.1L63.5 55.3L61.7 56.2L61.8 46.9L53.8 42.6L47.2 45.5L48.3 46.4L47.9 50.5L49.7 51.1L49.7 53.1L43.3 53.0L42.4 56.5L38.8 59.6L41.1 64.0L39.2 64.9L41.0 65.0L43.2 71.1L52.0 64.9L53.3 62.4ZM77.7 37.9L75.9 39.6L73.2 39.9L70.0 48.4L61.8 46.9L61.7 56.2L63.5 55.3L66.6 56.1L63.9 58.3L66.6 60.0L66.7 64.6L69.8 70.5L90.1 50.4ZM57.8 57.9L53.4 56.5L53.9 58.5L52.0 58.5L52.1 61.7L53.3 62.4L52.0 64.9L43.2 71.1L42.3 76.3L37.3 75.7L39.0 80.5L39.6 79.4L41.1 81.1L39.9 84.5L41.7 88.7L40.6 100.0L70.1 70.5L66.7 64.6L66.6 60.0L63.9 58.3L59.3 61.0L58.7 57.9Z" transform="translate(950 28) scale(1.72)" fill="#5b4be8" stroke="#5b4be8" stroke-width="3" stroke-linejoin="round"/>
</svg>
